<?xml version="1.0"?>
<svg version="1.1" xmlns="http://www.w3.org/2000/svg" width="350px" height="177px" style=""><path fill="#c732ac" d="M3.2763671875,145.2724609375l1.1279296875-1.3427734375q-0.21484375-9.0234375-0.4833984375-17.9931640625t-0.2685546875-17.83203125q0-11.0107421875,1.31591796875-21.29638671875t2.60498046875-21.08154296875q0.107421875-0.64453125,0.61767578125-1.04736328125t1.26220703125-0.67138671875t1.53076171875-0.3759765625t1.42333984375-0.107421875q0.859375,0,2.1484375,0.322265625t2.578125,1.8798828125q0,0.537109375,0.08056640625,0.93994140625t0.08056640625,0.93994140625q0,4.08203125-1.10107421875,8.7548828125t-1.47705078125,8.9697265625q-0.4296875,5.263671875-0.5908203125,10.419921875t-0.1611328125,10.4736328125l0.107421875,4.7265625q1.07421875-1.3427734375,3.0615234375-3.4375t4.296875-4.05517578125t4.619140625-3.35693359375t4.189453125-1.396484375q2.8466796875,0,3.94775390625,1.611328125t1.10107421875,4.2431640625q0,2.4169921875-1.04736328125,5.048828125t-2.7392578125,5.12939453125t-3.84033203125,4.48486328125t-4.2431640625,2.9541015625q2.8466796875,3.544921875,5.82763671875,6.767578125t6.52587890625,6.0693359375l0,1.2353515625q-0.107421875,0.537109375-0.67138671875,0.8056640625t-1.2353515625,0.4296875t-1.31591796875,0.24169921875t-1.07421875,0.08056640625q-2.6318359375,0-5.07568359375-1.5576171875t-4.5654296875-3.8134765625t-4.00146484375-4.7802734375t-3.4375-4.404296875q0.322265625,6.1767578125,0.72509765625,12.32666015625t0.40283203125,12.32666015625q0,0.751953125-0.67138671875,1.26220703125t-1.5576171875,0.77880859375t-1.79931640625,0.3759765625t-1.50390625,0.107421875q-3.1689453125,0-4.48486328125-1.15478515625t-2.22900390625-4.00146484375z M14.287109375,119.974609375q1.3427734375,0,3.19580078125-1.15478515625t3.84033203125-2.87353515625t3.7060546875-3.62548828125t2.76611328125-3.62548828125t1.04736328125-2.76611328125t-1.4501953125-0.93994140625q-0.537109375,0-2.2021484375,1.5576171875t-3.7060546875,3.8134765625t-4.08203125,4.8876953125t-3.115234375,4.7265625z M46.764501953125,125.66796875q0-3.759765625,0.83251953125-8.8623046875t2.81982421875-9.66796875t5.23681640625-7.76123046875t8.19091796875-3.19580078125q4.619140625,0,6.9287109375,2.65869140625t2.3095703125,7.17041015625q0,2.9541015625-1.10107421875,6.47216796875t-3.14208984375,6.66015625t-4.833984375,5.23681640625t-6.23046875,2.0947265625l-1.396484375-0.107421875q0,1.4501953125,0.4296875,3.89404296875t1.26220703125,4.86083984375t2.1484375,4.2431640625t3.19580078125,1.826171875q2.7392578125,0,5.263671875-2.2021484375t4.7802734375-4.8876953125t4.189453125-4.8876953125t3.544921875-2.2021484375q0.859375,0,1.7724609375,0.2685546875t1.0205078125,1.50390625q0,0.751953125-0.40283203125,1.2353515625t-0.72509765625,1.07421875q-1.6650390625,2.8466796875-3.62548828125,5.4248046875t-4.43115234375,4.6728515625t-5.39794921875,3.30322265625t-6.47216796875,1.20849609375q-4.619140625,0-7.6806640625-1.63818359375t-4.94140625-4.404296875t-2.71240234375-6.3916015625t-0.83251953125-7.60009765625z M56.378759765625,121.5859375l1.50390625,1.3427734375q1.07421875,0.966796875,2.1484375,0.4296875t1.93359375-1.96044921875t1.58447265625-3.51806640625t1.2890625-4.296875t0.83251953125-4.296875t0.2685546875-3.4912109375l0-1.826171875t-0.1611328125-1.93359375t-0.56396484375-1.53076171875t-1.26220703125-0.77880859375q-0.2685546875-0.0537109375-0.4833984375-0.0537109375q-1.826171875,0-3.115234375,2.3095703125q-1.396484375,2.578125-2.255859375,6.25732421875t-1.2353515625,7.54638671875t-0.4833984375,5.80078125z M91.64912109375,111.48828125q0-1.5576171875,0.88623046875-2.041015625t2.22900390625-0.4833984375q2.2021484375,0,3.35693359375,0.83251953125t1.15478515625,2.92724609375q0,2.5244140625,0.3759765625,6.31103515625t1.10107421875,7.3583984375t1.71875,6.14990234375t2.06787109375,2.578125q1.9873046875,0,3.51806640625-3.0615234375t2.685546875-7.51953125t1.9873046875-9.58740234375t1.15478515625-9.15771484375q0.21484375-2.2021484375,1.04736328125-3.19580078125t3.03466796875-0.99365234375q2.5244140625,0,3.67919921875,2.0947265625t1.47705078125,5.15625q0.2685546875,2.6318359375,0.2685546875,5.478515625l0,0.9130859375l0,2.1484375q0,2.041015625,0.0537109375,3.65234375l1.5576171875,32.9248046875l0.21484375,5.478515625q0.107421875,0.751953125,0.1611328125,1.42333984375t0.0537109375,1.42333984375q0,3.0615234375-1.31591796875,3.94775390625t-4.27001953125,0.88623046875q-0.64453125,0-1.63818359375-0.107421875t-1.93359375-0.4296875t-1.611328125-0.88623046875t-0.67138671875-1.42333984375l0.21484375-0.537109375q0.2685546875-3.22265625,0.2685546875-6.767578125l0-1.1279296875q-0.0537109375-4.189453125-0.2685546875-8.486328125t-0.4833984375-8.59375t-0.2685546875-8.271484375q-0.751953125,1.6650390625-1.74560546875,3.4375t-2.3095703125,3.19580078125t-2.98095703125,2.36328125t-3.759765625,0.93994140625q-3.0615234375,0-5.048828125-1.611328125t-3.08837890625-4.189453125t-1.58447265625-5.77392578125t-0.64453125-6.3916015625t-0.21484375-6.09619140625t-0.4296875-4.8876953125z M136.42631835937,107.8359375q0-3.759765625,0.34912109375-9.775390625t0.83251953125-12.4072265625t1.20849609375-12.11181640625t1.58447265625-8.78173828125q0.322265625-1.3427734375,1.53076171875-1.611328125t2.44384765625-0.2685546875q1.6650390625,0,2.87353515625,0.5908203125t1.20849609375,2.578125q0,9.775390625-1.20849609375,19.57763671875t-1.31591796875,19.57763671875q1.6650390625-2.5244140625,4.296875-3.78662109375t5.5859375-1.26220703125q4.08203125,0,7.0361328125,1.6650390625t4.7802734375,4.296875t2.71240234375,6.09619140625t0.88623046875,7.06298828125q0,1.9873046875-0.40283203125,4.96826171875t-1.20849609375,6.2841796875t-2.041015625,6.552734375t-2.92724609375,5.82763671875t-3.89404296875,4.16259765625t-4.833984375,1.58447265625q-0.537109375,0-1.42333984375-0.1611328125t-1.7724609375-0.4833984375t-1.47705078125-0.83251953125t-0.5908203125-1.26220703125q0-0.859375,1.04736328125-1.20849609375t1.69189453125-0.34912109375q2.4169921875-1.07421875,4.296875-4.48486328125t3.14208984375-7.49267578125t1.90673828125-8.08349609375t0.64453125-6.52587890625q0-1.4501953125-0.4296875-3.8671875t-1.31591796875-4.7802734375t-2.4169921875-4.08203125t-3.62548828125-1.71875q-2.5244140625,0-4.0283203125,2.60498046875t-2.36328125,6.0693359375t-1.15478515625,7.1435546875t-0.29541015625,5.77392578125q0,1.3427734375,0.45654296875,2.65869140625t1.04736328125,2.6318359375t1.04736328125,2.685546875t0.45654296875,2.71240234375q0,0.64453125-0.56396484375,1.07421875t-1.31591796875,0.6982421875t-1.58447265625,0.34912109375t-1.26220703125,0.08056640625q-3.0615234375,0-4.2431640625-1.4501953125t-2.041015625-4.08203125q-1.8798828125-5.9619140625-2.60498046875-12.11181640625t-0.72509765625-12.32666015625z M181.1498046875,124.486328125q0-3.0615234375,0.77880859375-6.31103515625t2.470703125-5.8544921875t4.27001953125-4.2431640625t6.23046875-1.63818359375q2.7392578125,0,5.77392578125,0.93994140625t5.55908203125,2.685546875t4.10888671875,4.27001953125t1.58447265625,5.6396484375q0,3.759765625-1.36962890625,7.1435546875t-3.84033203125,6.04248046875t-5.77392578125,4.189453125t-7.17041015625,1.53076171875q-3.1689453125,0-5.5322265625-1.15478515625t-3.94775390625-3.08837890625t-2.36328125-4.5654296875t-0.77880859375-5.5859375z M189.0453125,124.37890625q0,0.966796875,0.29541015625,2.8466796875t0.88623046875,3.67919921875t1.53076171875,3.115234375t2.28271484375,1.20849609375q2.8466796875-0.322265625,4.69970703125-1.85302734375t3.0078125-3.73291015625t1.611328125-4.7802734375t0.45654296875-4.8876953125q0-2.9541015625-1.15478515625-4.94140625t-3.78662109375-3.22265625q0,0.107421875,0.107421875,0.107421875t0.107421875-0.107421875l-1.3427734375-0.322265625q-0.537109375-0.21484375-1.31591796875-0.4833984375t-1.53076171875-1.181640625q-2.0947265625,0.751953125-3.24951171875,1.93359375t-1.74560546875,2.87353515625t-0.72509765625,4.05517578125t-0.13427734375,5.693359375z M220.77075195312,124.486328125q0-3.0615234375,0.77880859375-6.31103515625t2.470703125-5.8544921875t4.27001953125-4.2431640625t6.23046875-1.63818359375q2.7392578125,0,5.77392578125,0.93994140625t5.55908203125,2.685546875t4.10888671875,4.27001953125t1.58447265625,5.6396484375q0,3.759765625-1.36962890625,7.1435546875t-3.84033203125,6.04248046875t-5.77392578125,4.189453125t-7.17041015625,1.53076171875q-3.1689453125,0-5.5322265625-1.15478515625t-3.94775390625-3.08837890625t-2.36328125-4.5654296875t-0.77880859375-5.5859375z M228.66625976562,124.37890625q0,0.966796875,0.29541015625,2.8466796875t0.88623046875,3.67919921875t1.53076171875,3.115234375t2.28271484375,1.20849609375q2.8466796875-0.322265625,4.69970703125-1.85302734375t3.0078125-3.73291015625t1.611328125-4.7802734375t0.45654296875-4.8876953125q0-2.9541015625-1.15478515625-4.94140625t-3.78662109375-3.22265625q0,0.107421875,0.107421875,0.107421875t0.107421875-0.107421875l-1.3427734375-0.322265625q-0.537109375-0.21484375-1.31591796875-0.4833984375t-1.53076171875-1.181640625q-2.0947265625,0.751953125-3.24951171875,1.93359375t-1.74560546875,2.87353515625t-0.72509765625,4.05517578125t-0.13427734375,5.693359375z M261.46591796875,108.4267578125q0-2.2021484375,0.77880859375-3.7060546875t3.30322265625-1.50390625q0.966796875,0,2.4169921875,0.29541015625t1.6650390625,1.47705078125q0.537109375,3.1689453125,0.5908203125,6.875t0.3759765625,6.982421875q1.2353515625-2.4169921875,3.1689453125-5.2099609375t4.404296875-5.15625t5.37109375-3.9208984375t5.908203125-1.5576171875q0.21484375,0,0.8056640625,0.1611328125t1.10107421875,0.45654296875t0.61767578125,0.67138671875t-0.5908203125,0.6982421875q-0.21484375,0.64453125-0.9130859375,0.77880859375t-1.2353515625,0.13427734375q-0.322265625,0-1.0205078125-0.2685546875q-3.974609375,2.0947265625-6.767578125,5.693359375t-4.5654296875,7.97607421875t-2.578125,9.23828125t-0.8056640625,9.47998046875q0,2.3095703125-1.04736328125,2.79296875t-3.35693359375,0.4833984375q-1.2353515625,0-2.60498046875-0.2685546875t-1.90673828125-1.71875q-0.966796875-3.0615234375-1.58447265625-7.0361328125t-0.93994140625-8.19091796875t-0.45654296875-8.29833984375t-0.13427734375-7.3583984375z M299.63666992187,122.8212890625q0-4.189453125,0.88623046875-7.60009765625t2.81982421875-5.77392578125t5.07568359375-3.67919921875t7.65380859375-1.31591796875q2.5244140625,0,5.15625,0.67138671875t4.51171875,2.49755859375q0-1.07421875,0.21484375-4.43115234375t0.537109375-7.81494140625t0.67138671875-9.345703125t0.61767578125-9.0771484375t0.4833984375-7.0361328125t0.322265625-3.22265625q0.537109375-1.5576171875,1.9873046875-1.85302734375t2.7392578125-0.29541015625q3.3837890625,0,4.16259765625,1.07421875t0.77880859375,4.296875q0,11.7626953125-1.04736328125,23.41796875t-1.04736328125,23.41796875q0,7.5732421875,0.29541015625,15.22705078125t2.12158203125,15.06591796875l0.5908203125,0.537109375l0.322265625,0.966796875l-0.8056640625,1.2353515625q-2.041015625,1.2890625-4.7265625,1.2890625l-0.21484375,0q-2.7392578125,0-5.048828125-1.2890625q-0.859375-0.537109375-1.42333984375-3.19580078125t-0.88623046875-5.8544921875t-0.4833984375-6.14990234375t-0.2685546875-4.189453125q-1.8798828125,4.296875-5.12939453125,7.38525390625t-8.19091796875,3.08837890625q-3.8671875,0-6.337890625-1.6650390625t-3.84033203125-4.2431640625t-1.93359375-5.77392578125t-0.56396484375-6.36474609375z M306.13569335937,123.1435546875q0,1.2353515625,0.29541015625,3.65234375t0.93994140625,4.833984375t1.79931640625,4.296875t3.03466796875,1.8798828125q2.5244140625-1.2353515625,4.5654296875-4.10888671875t3.51806640625-6.337890625t2.3095703125-6.9287109375t0.83251953125-5.98876953125q0-3.1689453125-2.3095703125-5.263671875t-5.5322265625-2.0947265625q-0.966796875,0-1.96044921875,0.3759765625t-1.85302734375,0.859375q-1.9873046875,1.8798828125-3.08837890625,3.41064453125t-1.6650390625,3.1689453125t-0.72509765625,3.62548828125t-0.1611328125,4.619140625z"/><path fill="#" d=""/></svg>
